# xmcd CD database file
#
# Track frame offsets:
#	150
#	64758
#	109110
#	156750
#	205518
#	263454
#
# Disc length: 4072 seconds
#
# Revision: 0
# Processed by: cddbd v1.5.2PL0 Copyright (c) Steve Scherf et al.
# Submitted via: CDex 1.70beta2
#
DISCID=440fe606
DTITLE=Jack Wilkins and David Smith - Alone Together
DYEAR=1995
DGENRE=Jazz
TTITLE0=Alone Together
TTITLE1=Nuages
TTITLE2=Alice In Wonderland
TTITLE3=You Must Believe In Spring
TTITLE4=Body and Soul
TTITLE5=If I Should Lose You
EXTD=YEAR: 1995
EXTT0=
EXTT1=
EXTT2=
EXTT3=
EXTT4=
EXTT5=
PLAYORDER=
